# xmcd
#
# Track frame offsets: 
#        150
#        16425
#        34622
#        54960
#        75417
#        94702
#        106327
#        122675
#        147427
#        167982
#        185362
#        204190
#        224232
#
# Disc length: 3210 seconds
#
# Revision: 0
# Processed by: cddbd v1.5.2PL0 Copyright (c) Steve Scherf et al.
# Submitted via: ExactAudioCopy v1.0b1
#
DISCID=ae0c880d
DTITLE=羽泉 - 没你不行
DYEAR=2003
DGENRE=Pop
TTITLE0=没你不行
TTITLE1=惩罚
TTITLE2=天使(for my angel)
TTITLE3=因为爱
TTITLE4=还剩下什么
TTITLE5=在这一秒
TTITLE6=超乎想象
TTITLE7=坎大哈黎明
TTITLE8=火柴
TTITLE9=种子
TTITLE10=飞蛾
TTITLE11=忘了
TTITLE12=旅程
EXTD=
EXTT0=
EXTT1=
EXTT2=
EXTT3=
EXTT4=
EXTT5=
EXTT6=
EXTT7=
EXTT8=
EXTT9=
EXTT10=
EXTT11=
EXTT12=
PLAYORDER=
